<svg width="24" height="7" viewBox="0 0 24 7" fill="none" xmlns="http://www.w3.org/2000/svg">
<path d="M12.0001 1.66732C13.0126 1.66732 13.8334 2.48813 13.8334 3.50065C13.8334 4.51317 13.0126 5.33398 12.0001 5.33398C10.9876 5.33398 10.1667 4.51317 10.1667 3.50065C10.1667 2.48813 10.9876 1.66732 12.0001 1.66732Z" stroke="#FFCA42" stroke-width="1.5"/>
<path d="M21.1666 1.66732C22.1791 1.66732 22.9999 2.48813 22.9999 3.50065C22.9999 4.51317 22.1791 5.33398 21.1666 5.33398C20.1541 5.33398 19.3333 4.51317 19.3333 3.50065C19.3333 2.48813 20.1541 1.66732 21.1666 1.66732Z" stroke="#FFCA42" stroke-width="1.5"/>
<path d="M2.83333 1.66732C3.84586 1.66732 4.66667 2.48813 4.66667 3.50065C4.66667 4.51317 3.84586 5.33398 2.83333 5.33398C1.82081 5.33398 1 4.51317 1 3.50065C1 2.48813 1.82081 1.66732 2.83333 1.66732Z" stroke="#FFCA42" stroke-width="1.5"/>
</svg>
