<svg width="23" height="23" viewBox="0 0 23 23" fill="none" xmlns="http://www.w3.org/2000/svg">
<g clip-path="url(#clip0_415_16)">
<path fill-rule="evenodd" clip-rule="evenodd" d="M1.77029 3.68728C2.31727 3.1403 3.05913 2.83301 3.83268 2.83301H10.541C11.0933 2.83301 11.541 3.28072 11.541 3.83301C11.541 4.38529 11.0933 4.83301 10.541 4.83301H3.83268C3.58957 4.83301 3.35641 4.92958 3.1845 5.10149C3.01259 5.2734 2.91602 5.50656 2.91602 5.74967V19.1663C2.91602 19.4095 3.01259 19.6426 3.1845 19.8145C3.35641 19.9864 3.58957 20.083 3.83268 20.083H17.2493C17.4925 20.083 17.7256 19.9864 17.8975 19.8145C18.0694 19.6426 18.166 19.4095 18.166 19.1663V12.458C18.166 11.9057 18.6137 11.458 19.166 11.458C19.7183 11.458 20.166 11.9057 20.166 12.458V19.1663C20.166 19.9399 19.8587 20.6818 19.3117 21.2287C18.7648 21.7757 18.0229 22.083 17.2493 22.083H3.83268C3.05913 22.083 2.31727 21.7757 1.77029 21.2287C1.22331 20.6818 0.916016 19.9399 0.916016 19.1663V5.74967C0.916016 4.97613 1.22331 4.23426 1.77029 3.68728Z" fill="#FFCA42"/>
<path fill-rule="evenodd" clip-rule="evenodd" d="M19.166 2.80078C18.8921 2.80078 18.6294 2.90961 18.4356 3.10332L9.52733 12.0116L9.04041 13.9593L10.9881 13.4724L19.8964 4.56411C20.0901 4.37039 20.199 4.10766 20.199 3.83371C20.199 3.55976 20.0901 3.29703 19.8964 3.10332C19.7027 2.90961 19.44 2.80078 19.166 2.80078ZM17.0214 1.68911C17.5902 1.12032 18.3617 0.800781 19.166 0.800781C19.9704 0.800781 20.7419 1.12032 21.3106 1.68911C21.8794 2.25789 22.199 3.02933 22.199 3.83371C22.199 4.6381 21.8794 5.40954 21.3106 5.97832L12.2065 15.0825C12.0783 15.2106 11.9177 15.3016 11.7419 15.3455L7.90857 16.3039C7.5678 16.3891 7.20731 16.2892 6.95893 16.0408C6.71055 15.7924 6.6107 15.432 6.69589 15.0912L7.65423 11.2578C7.69819 11.082 7.7891 10.9214 7.91726 10.7933L17.0214 1.68911Z" fill="#FFCA42"/>
</g>
<defs>
<clipPath id="clip0_415_16">
<rect width="23" height="23" fill="white"/>
</clipPath>
</defs>
</svg>
